HIERARCHY
ROOT Hips
{
    OFFSET   0.000000   0.000000   0.000000
    CHANNELS 6 Xposition Yposition Zposition Zrotation Xrotation Yrotation
    JOINT Chest
    {
        OFFSET   0.000000   8.007230   0.000000
        CHANNELS 3 Zrotation Xrotation Yrotation
        JOINT Chest2
        {
            OFFSET   0.000000  22.077100   0.000000
            CHANNELS 3 Zrotation Xrotation Yrotation
            JOINT Neck
            {
                OFFSET   0.000000  23.254800   0.000000
                CHANNELS 3 Zrotation Xrotation Yrotation
                JOINT Head
                {
                    OFFSET   0.000010  14.370000   1.956600
                    CHANNELS 3 Zrotation Xrotation Yrotation
                    End Site
                    {
                        OFFSET   0.000000  19.566000   0.000000
                    }
                }
            }
            JOINT LeftCollar
            {
                OFFSET   3.911900  19.017000  -0.467062
                CHANNELS 3 Zrotation Xrotation Yrotation
                JOINT LeftShoulder
                {
                    OFFSET  10.383700   0.000000   0.000000
                    CHANNELS 3 Zrotation Xrotation Yrotation
                    JOINT LeftElbow
                    {
                        OFFSET  26.662100   0.001193   0.000835
                        CHANNELS 3 Zrotation Xrotation Yrotation
                        JOINT LeftWrist
                        {
                            OFFSET  28.869000  -0.000058  -0.000075
                            CHANNELS 3 Zrotation Xrotation Yrotation
                            JOINT LeftFinger0
                            {
                                OFFSET   2.044660  -2.323460   3.252850
                                CHANNELS 3 Zrotation Xrotation Yrotation
                                JOINT LeftFinger01
                                {
                                    OFFSET   3.088130   0.000000   0.000000
                                    CHANNELS 3 Zrotation Xrotation Yrotation
                                    JOINT LeftFinger02
                                    {
                                        OFFSET   2.639450   0.000000   0.000000
                                        CHANNELS 3 Zrotation Xrotation Yrotation
                                        End Site
                                        {
                                            OFFSET   2.582190   0.000000   0.000000
                                        }
                                    }
                                }
                            }
                            JOINT LeftFinger1
                            {
                                OFFSET   8.364480   0.000000   3.252850
                                CHANNELS 3 Zrotation Xrotation Yrotation
                                JOINT LeftFinger11
                                {
                                    OFFSET   4.646920   0.000000   0.000000
                                    CHANNELS 3 Zrotation Xrotation Yrotation
                                    JOINT LeftFinger12
                                    {
                                        OFFSET   2.323460   0.000000   0.000000
                                        CHANNELS 3 Zrotation Xrotation Yrotation
                                        End Site
                                        {
                                            OFFSET   2.273050   0.000000   0.000000
                                        }
                                    }
                                }
                            }
                            JOINT LeftFinger2
                            {
                                OFFSET   8.364490   0.000016   1.078090
                                CHANNELS 3 Zrotation Xrotation Yrotation
                                JOINT LeftFinger21
                                {
                                    OFFSET   5.111620   0.000000   0.000000
                                    CHANNELS 3 Zrotation Xrotation Yrotation
                                    JOINT LeftFinger22
                                    {
                                        OFFSET   2.788150   0.000012   0.000000
                                        CHANNELS 3 Zrotation Xrotation Yrotation
                                        End Site
                                        {
                                            OFFSET   2.727660   0.000000   0.000000
                                        }
                                    }
                                }
                            }
                            JOINT LeftFinger3
                            {
                                OFFSET   7.899780   0.000014  -1.078090
                                CHANNELS 3 Zrotation Xrotation Yrotation
                                JOINT LeftFinger31
                                {
                                    OFFSET   4.646930   0.000000   0.000000
                                    CHANNELS 3 Zrotation Xrotation Yrotation
                                    JOINT LeftFinger32
                                    {
                                        OFFSET   2.323470   0.000000   0.000000
                                        CHANNELS 3 Zrotation Xrotation Yrotation
                                        End Site
                                        {
                                            OFFSET   2.273050   0.000000   0.000000
                                        }
                                    }
                                }
                            }
                            JOINT LeftFinger4
                            {
                                OFFSET   7.435090   0.000000  -3.252850
                                CHANNELS 3 Zrotation Xrotation Yrotation
                                JOINT LeftFinger41
                                {
                                    OFFSET   3.717550   0.000000   0.000000
                                    CHANNELS 3 Zrotation Xrotation Yrotation
                                    JOINT LeftFinger42
                                    {
                                        OFFSET   1.858770   0.000000   0.000000
                                        CHANNELS 3 Zrotation Xrotation Yrotation
                                        End Site
                                        {
                                            OFFSET   1.818440   0.000000   0.000000
                                        }
                                    }
                                }
                            }
                        }
                    }
                }
            }
            JOINT RightCollar
            {
                OFFSET  -3.911900  19.017000  -0.467063
                CHANNELS 3 Zrotation Xrotation Yrotation
                JOINT RightShoulder
                {
                    OFFSET -10.383700   0.000023   0.000000
                    CHANNELS 3 Zrotation Xrotation Yrotation
                    JOINT RightElbow
                    {
                        OFFSET -26.662100   0.001246   0.001011
                        CHANNELS 3 Zrotation Xrotation Yrotation
                        JOINT RightWrist
                        {
                            OFFSET -28.869000  -0.000026  -0.000078
                            CHANNELS 3 Zrotation Xrotation Yrotation
                            JOINT RightFinger0
                            {
                                OFFSET  -2.044660  -2.323490   3.252850
                                CHANNELS 3 Zrotation Xrotation Yrotation
                                JOINT RightFinger01
                                {
                                    OFFSET  -3.088130   0.000000   0.000000
                                    CHANNELS 3 Zrotation Xrotation Yrotation
                                    JOINT RightFinger02
                                    {
                                        OFFSET  -2.639460   0.000000   0.000000
                                        CHANNELS 3 Zrotation Xrotation Yrotation
                                        End Site
                                        {
                                            OFFSET  -2.582190   0.000000   0.000000
                                        }
                                    }
                                }
                            }
                            JOINT RightFinger1
                            {
                                OFFSET  -8.364480   0.000000   3.252850
                                CHANNELS 3 Zrotation Xrotation Yrotation
                                JOINT RightFinger11
                                {
                                    OFFSET  -4.646920   0.000000   0.000000
                                    CHANNELS 3 Zrotation Xrotation Yrotation
                                    JOINT RightFinger12
                                    {
                                        OFFSET  -2.323470   0.000000   0.000000
                                        CHANNELS 3 Zrotation Xrotation Yrotation
                                        End Site
                                        {
                                            OFFSET  -2.273050   0.000000   0.000000
                                        }
                                    }
                                }
                            }
                            JOINT RightFinger2
                            {
                                OFFSET  -8.364480   0.000000   1.078090
                                CHANNELS 3 Zrotation Xrotation Yrotation
                                JOINT RightFinger21
                                {
                                    OFFSET  -5.111620   0.000000   0.000000
                                    CHANNELS 3 Zrotation Xrotation Yrotation
                                    JOINT RightFinger22
                                    {
                                        OFFSET  -2.788160   0.000000   0.000000
                                        CHANNELS 3 Zrotation Xrotation Yrotation
                                        End Site
                                        {
                                            OFFSET  -2.727660   0.000000   0.000000
                                        }
                                    }
                                }
                            }
                            JOINT RightFinger3
                            {
                                OFFSET  -7.899780   0.000000  -1.078090
                                CHANNELS 3 Zrotation Xrotation Yrotation
                                JOINT RightFinger31
                                {
                                    OFFSET  -4.646930   0.000000   0.000000
                                    CHANNELS 3 Zrotation Xrotation Yrotation
                                    JOINT RightFinger32
                                    {
                                        OFFSET  -2.323470   0.000000   0.000000
                                        CHANNELS 3 Zrotation Xrotation Yrotation
                                        End Site
                                        {
                                            OFFSET  -2.273050   0.000000   0.000000
                                        }
                                    }
                                }
                            }
                            JOINT RightFinger4
                            {
                                OFFSET  -7.435090   0.000000  -3.252850
                                CHANNELS 3 Zrotation Xrotation Yrotation
                                JOINT RightFinger41
                                {
                                    OFFSET  -3.717550   0.000000   0.000000
                                    CHANNELS 3 Zrotation Xrotation Yrotation
                                    JOINT RightFinger42
                                    {
                                        OFFSET  -1.858760   0.000000   0.000000
                                        CHANNELS 3 Zrotation Xrotation Yrotation
                                        End Site
                                        {
                                            OFFSET  -1.818440   0.000000   0.000000
                                        }
                                    }
                                }
                            }
                        }
                    }
                }
            }
        }
    }
    JOINT LeftHip
    {
        OFFSET   9.783010   0.000000   0.000000
        CHANNELS 3 Zrotation Xrotation Yrotation
        JOINT LeftKnee
        {
            OFFSET   0.000073 -41.789100   0.001749
            CHANNELS 3 Zrotation Xrotation Yrotation
            JOINT LeftAnkle
            {
                OFFSET   0.000111 -41.133200  -0.000179
                CHANNELS 3 Zrotation Xrotation Yrotation
                JOINT LeftToe
                {
                    OFFSET   0.000000  -6.358960  14.674500
                    CHANNELS 3 Zrotation Xrotation Yrotation
                    End Site
                    {
                        OFFSET   0.000000   0.000000   3.913200
                    }
                }
            }
        }
    }
    JOINT RightHip
    {
        OFFSET  -9.783010   0.000000   0.000000
        CHANNELS 3 Zrotation Xrotation Yrotation
        JOINT RightKnee
        {
            OFFSET   0.000424 -41.789200   0.005205
            CHANNELS 3 Zrotation Xrotation Yrotation
            JOINT RightAnkle
            {
                OFFSET   0.000000 -41.133200  -0.000155
                CHANNELS 3 Zrotation Xrotation Yrotation
                JOINT RightToe
                {
                    OFFSET   0.000000  -6.358960  14.674500
                    CHANNELS 3 Zrotation Xrotation Yrotation
                    End Site
                    {
                        OFFSET   0.000000   0.000000   3.913200
                    }
                }
            }
        }
    }
}
MOTION
Frames: 4
Frame Time:   0.016667
 -0.695002  89.591900  -5.363890  -1.711360  -7.339310  -0.033228   0.893243   3.294450  -0.886177   1.842080   6.574230  -1.828320  -0.239648   0.043972   0.008599  -0.384530   0.089055   5.455510  -4.163480  -1.624620   2.737260 -74.572900  14.041800   2.900990  -0.674949  -0.858345 -16.307000  11.295800  -6.567850   0.456369  40.338900  30.986000 -53.921100 -29.501200   0.000000   0.000000  -9.750570   0.002804   0.001672 -27.781700   4.855300  -9.126990 -23.039300   0.005199  -0.000559 -16.127500  -0.000592  -0.000224 -27.574000  -0.716090   1.371490 -29.566200  -0.001910   0.006535 -19.691100  -0.000134   0.011695 -27.627500  -0.717763   1.370610 -29.925800  -0.001028   0.001652 -19.930500   0.000775   0.005899 -29.207000  -0.755131   1.350390 -43.823800  -0.013229   0.009927 -29.186700  -0.000713   0.003847   9.418420   0.914429   4.539580  67.403300   0.383701  -8.462180   0.204358  -9.839280   6.298880 -13.230500  -3.654260   2.579590 -41.767000  30.243100  56.141100  26.043900   0.003629  -0.001677   8.021960   0.007661  -0.003090  31.285500  10.722600  17.021700  26.914000   0.007686  -0.002987  18.839800   0.002183   0.011185  27.717300   5.530080  10.395900  33.567900   0.000571  -0.001321  22.356200  -0.000734   0.001161  26.746900   4.941060   9.684340  27.685600   0.010986  -0.000083  18.438600   0.000301  -0.000156  33.026500   0.673888   1.036560  49.549000   0.002743   0.000627  32.999600   0.001742   0.000000   1.886230   8.329610  -0.863163   1.315160  -0.001208  12.089600  -1.752860  -1.460000   0.481397   0.000000   0.000000   0.000000   4.127080   6.193110  -0.126085  -1.113970   3.529150 -20.531500  -0.098688  -3.925600   2.473980  -0.000000   0.000000  -0.000000
 -0.713516  89.591900  -5.370370  -1.710520  -7.352280  -0.026674   0.887643   3.316190  -0.881951   1.831000   6.617870  -1.819920  -0.229440   0.010573   0.008597  -0.371752   0.021487   5.437410  -4.173750  -1.624320   2.725660 -74.555200  14.055400   2.879440  -0.691899  -0.887181 -16.293800  11.303100  -6.567100   0.452671  40.329100  30.987300 -53.953700 -29.516300  -0.000031   0.000000  -9.758120   0.002836   0.001677 -27.781000   4.862250  -9.140080 -23.038800   0.005205  -0.000570 -16.127200  -0.000593  -0.000231 -27.573600  -0.729242   1.396630 -29.572300  -0.001912   0.006532 -19.695100  -0.000135   0.011702 -27.626900  -0.730833   1.395800 -29.909100  -0.001028   0.001647 -19.919400   0.000774   0.005901 -29.191300  -0.768623   1.375350 -43.800600  -0.013234   0.009929 -29.171300  -0.000713   0.003848   9.419910   0.895664   4.539560  67.419800   0.433482  -8.472730   0.231793  -9.843360   6.295840 -13.234100  -3.635010   2.517460 -41.730500  30.214800  56.128400  26.067100   0.003624  -0.001684   8.033540   0.007664  -0.003093  31.260100  10.722000  17.032500  26.894400   0.007687  -0.002987  18.826000   0.002179   0.011182  27.710800   5.529960  10.403200  33.517700   0.000575  -0.001324  22.322700  -0.000738   0.001157  26.737100   4.940950   9.692650  27.644900   0.010989  -0.000088  18.411500   0.000298  -0.000159  32.979200   0.683749   1.053650  49.478400   0.002738   0.000624  32.952600   0.001739  -0.000000   1.897320   8.350570  -0.868372   1.313890  -0.018776  12.093500  -1.758580  -1.442420   0.478246  -0.000000   0.000000  -0.000000   4.142520   6.201380  -0.128617  -1.114230   3.529300 -20.527300  -0.122829  -3.925490   2.455090   0.000000   0.000000   0.000000
 -0.743654  89.591900  -5.380410  -1.708770  -7.377090  -0.012923   0.878338   3.353610  -0.875726   1.812670   6.692970  -1.807590  -0.212856  -0.042691   0.008593  -0.349691  -0.086322   5.419320  -4.189550  -1.624030   2.707860 -74.525700  14.085300   2.845640  -0.719758  -0.936545 -16.275800  11.309200  -6.563830   0.438141  40.312800  30.986100 -54.010200 -29.537900  -0.000068  -0.000000  -9.768940   0.002867   0.001683 -27.779600   4.873300  -9.160990 -23.038300   0.005214  -0.000596 -16.126800  -0.000596  -0.000251 -27.572900  -0.747515   1.431520 -29.583600  -0.001916   0.006525 -19.702700  -0.000135   0.011722 -27.626000  -0.748977   1.430760 -29.885600  -0.001030   0.001634 -19.903800   0.000771   0.005904 -29.175300  -0.787401   1.409980 -43.777500  -0.013247   0.009937 -29.155800  -0.000712   0.003854   9.422520   0.862728   4.539540  67.446400   0.518263  -8.489490   0.280224  -9.859690   6.287120 -13.238100  -3.607230   2.455320 -41.695400  30.184300  56.119000  26.107600   0.003614  -0.001693   8.053800   0.007669  -0.003097  31.234700  10.721300  17.043400  26.874700   0.007690  -0.002989  18.812300   0.002171   0.011176  27.704200   5.529860  10.410500  33.467400   0.000583  -0.001334  22.289200  -0.000747   0.001145  26.727400   4.940870   9.700950  27.604200   0.010997  -0.000099  18.384400   0.000291  -0.000167  32.921500   0.695722   1.074400  49.392100   0.002726   0.000616  32.895100   0.001729   0.000000   1.915440   8.371530  -0.873582   1.312610  -0.036343  12.100300  -1.774160  -1.424850   0.465761  -0.000000   0.000000  -0.000000   4.168250   6.218120  -0.138398  -1.114640   3.529800 -20.520400  -0.160601  -3.925420   2.427010  -0.000000   0.000000   0.000000
 -0.766266  89.591500  -5.386760  -1.709500  -7.403620   0.003593   0.870910   3.386050  -0.872558   1.798180   6.758020  -1.801390  -0.200637  -0.081660   0.008587  -0.330160  -0.165333   5.422340  -4.199070  -1.626220   2.694910 -74.503000  14.122700   2.822520  -0.741265  -0.979369 -16.269900  11.301300  -6.557900   0.407606  40.289700  30.970700 -54.069600 -29.549000  -0.000075   0.000000  -9.774480   0.002860   0.001668 -27.778600   4.880740  -9.174350 -23.043200   0.005222  -0.000632 -16.130200  -0.000603  -0.000286 -27.572500  -0.754103   1.443900 -29.598800  -0.001922   0.006514 -19.712800  -0.000139   0.011752 -27.625900  -0.755438   1.443200 -29.877200  -0.001035   0.001614 -19.898200   0.000763   0.005905 -29.176900  -0.794235   1.422220 -43.780300  -0.013270   0.009949 -29.157700  -0.000707   0.003865   9.428200   0.833023   4.548490  67.467200   0.590732  -8.499070   0.325359  -9.897530   6.267270 -13.256000  -3.592520   2.462760 -41.684600  30.192500  56.133700  26.143600   0.003602  -0.001698   8.071770   0.007676  -0.003095  31.236000  10.721300  17.042800  26.875600   0.007696  -0.002998  18.812900   0.002159   0.011170  27.709400   5.530010  10.404700  33.506400   0.000596  -0.001350  22.315200  -0.000756   0.001124  26.731600   4.940970   9.697320  27.622000   0.011009  -0.000116  18.396200   0.000283  -0.000177  32.910500   0.697921   1.078220  49.375700   0.002709   0.000600  32.884100   0.001714  -0.000025   1.928610   8.364180  -0.873038   1.316390   0.031268  12.107000  -1.802060  -1.451550   0.441202  -0.000000   0.000000   0.000000   4.187950   6.239100  -0.159104  -1.118450   3.530500 -20.514200  -0.185318  -3.925620   2.413010  -0.000000   0.000000  -0.000000
